<svg width="16" height="16" viewBox="0 0 16 16" fill="none" xmlns="http://www.w3.org/2000/svg">
<path d="M8.00001 14.6667C7.07779 14.6667 6.21112 14.4916 5.40001 14.1413C4.5889 13.7911 3.88334 13.3162 3.28334 12.7167C2.68334 12.1167 2.20845 11.4111 1.85868 10.6C1.5089 9.78889 1.33379 8.92222 1.33334 8C1.33334 7.07778 1.50845 6.21111 1.85868 5.4C2.2089 4.58889 2.68379 3.88333 3.28334 3.28333C3.88334 2.68333 4.5889 2.20844 5.40001 1.85867C6.21112 1.50889 7.07779 1.33378 8.00001 1.33333C8.92223 1.33333 9.7889 1.50844 10.6 1.85867C11.4111 2.20889 12.1167 2.68378 12.7167 3.28333C13.3167 3.88333 13.7918 4.58889 14.142 5.4C14.4922 6.21111 14.6671 7.07778 14.6667 8C14.6667 8.92222 14.4916 9.78889 14.1413 10.6C13.7911 11.4111 13.3162 12.1167 12.7167 12.7167C12.1167 13.3167 11.4111 13.7918 10.6 14.142C9.7889 14.4922 8.92223 14.6671 8.00001 14.6667ZM8.00001 13.3333C9.4889 13.3333 10.75 12.8167 11.7833 11.7833C12.8167 10.75 13.3333 9.48889 13.3333 8C13.3333 6.51111 12.8167 5.25 11.7833 4.21667C10.75 3.18333 9.4889 2.66667 8.00001 2.66667C6.51112 2.66667 5.25001 3.18333 4.21668 4.21667C3.18334 5.25 2.66668 6.51111 2.66668 8C2.66668 9.48889 3.18334 10.75 4.21668 11.7833C5.25001 12.8167 6.51112 13.3333 8.00001 13.3333Z" fill="#CCA2B7"/>
</svg>
