<svg width="16" height="16" viewBox="0 0 16 16" fill="none" xmlns="http://www.w3.org/2000/svg">
<g clip-path="url(#clip0_3_27)">
<path d="M9.52 1.33334C9.79984 1.33341 10.0726 1.42153 10.2995 1.58521C10.5265 1.74889 10.6962 1.97984 10.7847 2.24534L11.1467 3.33334H13.3333C13.5101 3.33334 13.6797 3.40357 13.8047 3.5286C13.9298 3.65362 14 3.82319 14 4C14 4.17681 13.9298 4.34638 13.8047 4.47141C13.6797 4.59643 13.5101 4.66667 13.3333 4.66667L13.3313 4.714L12.7533 12.8093C12.7173 13.3137 12.4915 13.7858 12.1214 14.1304C11.7513 14.475 11.2644 14.6666 10.7587 14.6667H5.24133C4.73564 14.6666 4.24874 14.475 3.87864 14.1304C3.50855 13.7858 3.28274 13.3137 3.24667 12.8093L2.66867 4.71334C2.66746 4.69781 2.66679 4.68224 2.66667 4.66667C2.48986 4.66667 2.32029 4.59643 2.19526 4.47141C2.07024 4.34638 2 4.17681 2 4C2 3.82319 2.07024 3.65362 2.19526 3.5286C2.32029 3.40357 2.48986 3.33334 2.66667 3.33334H4.85333L5.21533 2.24534C5.3038 1.97973 5.47362 1.7487 5.70073 1.58501C5.92784 1.42132 6.20071 1.33327 6.48067 1.33334H9.52ZM11.998 4.66667H4.002L4.57667 12.714C4.58863 12.8821 4.66385 13.0395 4.78717 13.1544C4.9105 13.2693 5.07277 13.3333 5.24133 13.3333H10.7587C10.9272 13.3333 11.0895 13.2693 11.2128 13.1544C11.3362 13.0395 11.4114 12.8821 11.4233 12.714L11.998 4.66667ZM6.66667 6.66667C6.82996 6.66669 6.98756 6.72664 7.10958 6.83515C7.23161 6.94365 7.30956 7.09317 7.32867 7.25534L7.33333 7.33334V10.6667C7.33315 10.8366 7.26808 11 7.15143 11.1236C7.03479 11.2471 6.87536 11.3215 6.70574 11.3314C6.53611 11.3414 6.36908 11.2862 6.23878 11.1772C6.10848 11.0681 6.02474 10.9134 6.00467 10.7447L6 10.6667V7.33334C6 7.15652 6.07024 6.98696 6.19526 6.86193C6.32029 6.73691 6.48986 6.66667 6.66667 6.66667ZM9.33333 6.66667C9.51014 6.66667 9.67971 6.73691 9.80474 6.86193C9.92976 6.98696 10 7.15652 10 7.33334V10.6667C10 10.8435 9.92976 11.013 9.80474 11.1381C9.67971 11.2631 9.51014 11.3333 9.33333 11.3333C9.15652 11.3333 8.98695 11.2631 8.86193 11.1381C8.7369 11.013 8.66667 10.8435 8.66667 10.6667V7.33334C8.66667 7.15652 8.7369 6.98696 8.86193 6.86193C8.98695 6.73691 9.15652 6.66667 9.33333 6.66667ZM9.52 2.66667H6.48L6.258 3.33334H9.742L9.52 2.66667Z" fill="#797979"/>
</g>
<defs>
<clipPath id="clip0_3_27">
<rect width="16" height="16" fill="white"/>
</clipPath>
</defs>
</svg>
